<svg viewBox="0 0 50 50" fill="none" xmlns="http://www.w3.org/2000/svg">
<g clip-path="url(#clip0_848_39953)">
<path d="M22.8599 31.35C23.4899 31.79 23.8999 32.51 23.8999 33.33V43.89C23.8999 46.24 21.9999 48.14 19.6499 48.14C18.0699 48.14 16.6899 47.27 15.9599 45.99C15.6099 45.37 15.4099 44.66 15.4099 43.9" stroke="currentcolor" stroke-width="1.25" stroke-linecap="square" stroke-linejoin="round"/>
<path d="M18.4199 21.12C18.8799 20.93 19.3899 20.83 19.9199 20.83C22.1099 20.83 23.8899 22.61 23.8899 24.8V28.26C23.8899 30.37 22.2499 32.31 20.1799 32.45" stroke="currentcolor" stroke-width="1.25" stroke-linecap="round" stroke-linejoin="round"/>
<path d="M19.0601 4.19C19.0601 2.86 20.1401 1.78 21.4701 1.78C22.8001 1.78 23.8801 2.85 23.8801 4.18V4.2V17.77C23.8801 19.14 23.1901 20.44 22.1301 21.22" stroke="currentcolor" stroke-width="1.25" stroke-linecap="square" stroke-linejoin="round"/>
<path d="M15.95 45.98C15.47 46.14 14.96 46.23 14.42 46.23C11.81 46.23 9.69995 44.11 9.69995 41.51C9.69995 40.36 10.11 39.31 10.79 38.49" stroke="currentcolor" stroke-width="1.25" stroke-linecap="round" stroke-linejoin="round"/>
<path d="M9.71006 41.15C7.06006 40.63 5.06006 38.29 5.06006 35.49C5.06006 34.53 5.30006 33.62 5.71006 32.83" stroke="currentcolor" stroke-width="1.25" stroke-linecap="round" stroke-linejoin="round"/>
<path d="M17.1 11.33C15.34 10.8 14.05 9.17001 14.05 7.23001C14.05 4.87001 15.97 2.95001 18.33 2.95001C18.68 2.95001 19.02 2.99001 19.34 3.07001" stroke="currentcolor" stroke-width="1.25" stroke-linecap="round" stroke-linejoin="round"/>
<path d="M9.81994 12.28C9.41994 11.63 9.18994 10.86 9.18994 10.04C9.18994 7.69 11.0999 5.78 13.4499 5.78C13.7299 5.78 14.0099 5.81 14.2799 5.86" stroke="currentcolor" stroke-width="1.25" stroke-linecap="square" stroke-linejoin="round"/>
<path d="M5.88988 16.28C5.71988 15.82 5.62988 15.32 5.62988 14.8C5.62988 12.66 7.17988 10.89 9.21988 10.54" stroke="currentcolor" stroke-width="1.25" stroke-linejoin="round"/>
<path d="M4.09005 24.81C3.43005 23.84 3.05005 22.67 3.05005 21.41C3.05005 19.25 4.18005 17.34 5.88005 16.27" stroke="currentcolor" stroke-width="1.25" stroke-linecap="round" stroke-linejoin="round"/>
<path d="M5.71 32.83C3.96 32.04 2.75 30.28 2.75 28.24C2.75 26.06 4.13 24.21 6.06 23.5" stroke="currentcolor" stroke-width="1.25" stroke-linecap="round" stroke-linejoin="round"/>
<path d="M27.6601 31.3C27.0301 31.74 26.6201 32.46 26.6201 33.29V43.84C26.6201 46.18 28.5201 48.08 30.8601 48.08C33.2001 48.08 35.1001 46.18 35.1001 43.84" stroke="currentcolor" stroke-width="1.25" stroke-linecap="square" stroke-linejoin="round"/>
<path d="M31.6401 20.93C31.3001 20.84 30.9501 20.79 30.5801 20.79C28.3901 20.79 26.6101 22.57 26.6101 24.76V26.36V28.21C26.6101 30.32 28.2501 32.25 30.3201 32.4" stroke="currentcolor" stroke-width="1.25" stroke-linecap="round" stroke-linejoin="round"/>
<path d="M31.4501 4.16C31.4501 2.83 30.3701 1.75 29.0401 1.75C27.7101 1.75 26.6401 2.82 26.6301 4.15V4.17V16.54V17.74C26.6301 19.11 27.3201 20.41 28.3801 21.19" stroke="currentcolor" stroke-width="1.25" stroke-linecap="square" stroke-linejoin="round"/>
<path d="M34.5601 45.93C35.0401 46.09 35.5501 46.18 36.0801 46.18C38.6901 46.18 40.8001 44.07 40.8001 41.46C40.8001 40.31 40.3901 39.26 39.7101 38.44" stroke="currentcolor" stroke-width="1.25" stroke-linecap="round" stroke-linejoin="round"/>
<path d="M33.4102 11.29C35.1702 10.76 36.4602 9.13 36.4602 7.19C36.4602 4.83 34.5502 2.91 32.1802 2.91C31.8302 2.91 31.4902 2.95 31.1702 3.03" stroke="currentcolor" stroke-width="1.25" stroke-linecap="round" stroke-linejoin="round"/>
<path d="M40.69 12.24C41.09 11.59 41.32 10.83 41.32 10.01C41.32 7.66001 39.42 5.76001 37.07 5.76001C36.79 5.76001 36.51 5.79001 36.24 5.84001" stroke="currentcolor" stroke-width="1.25" stroke-linecap="square" stroke-linejoin="round"/>
<path d="M44.62 16.24C44.79 15.78 44.8801 15.28 44.8801 14.76C44.8801 12.63 43.33 10.85 41.3 10.5" stroke="currentcolor" stroke-width="1.25" stroke-linejoin="round"/>
<path d="M46.4101 24.77C47.0701 23.8 47.4501 22.63 47.4501 21.37C47.4501 19.21 46.3201 17.31 44.6201 16.23" stroke="currentcolor" stroke-width="1.25" stroke-linecap="round" stroke-linejoin="round"/>
<path d="M40.79 41.1C43.44 40.58 45.44 38.24 45.44 35.44C45.44 34.48 45.21 33.57 44.79 32.78C46.53 31.99 47.75 30.23 47.75 28.19C47.75 26.01 46.37 24.16 44.44 23.46" stroke="currentcolor" stroke-width="1.25" stroke-linecap="round" stroke-linejoin="round"/>
<path d="M19.1299 22.53C19.1299 23.49 18.3499 24.27 17.3899 24.27C16.4299 24.27 15.6499 23.49 15.6499 22.53C15.6499 21.57 16.4299 20.79 17.3899 20.79C17.7199 20.79 18.0199 20.88 18.2799 21.04C18.7899 21.34 19.1299 21.9 19.1299 22.54V22.53Z" stroke="#00AF9A" stroke-width="1.25" stroke-linecap="round" stroke-linejoin="round"/>
<path d="M30.6799 22.49C30.6799 23.45 31.4599 24.23 32.4199 24.23C33.3799 24.23 34.1599 23.45 34.1599 22.49C34.1599 21.53 33.3799 20.75 32.4199 20.75C32.2199 20.75 32.0299 20.78 31.8599 20.84C31.1699 21.07 30.6799 21.72 30.6799 22.49Z" stroke="#00AF9A" stroke-width="1.25" stroke-linecap="round" stroke-linejoin="round"/>
<path d="M20.5801 11.51C20.5801 12.47 19.8001 13.25 18.8401 13.25C17.8801 13.25 17.1001 12.47 17.1001 11.51C17.1001 11.45 17.1001 11.39 17.1001 11.33C17.1901 10.45 17.9301 9.77002 18.8301 9.77002C19.7901 9.77002 20.5701 10.55 20.5701 11.51H20.5801Z" stroke="#00AF9A" stroke-width="1.25" stroke-linecap="round" stroke-linejoin="round"/>
<path d="M7.72999 24.74C8.69097 24.74 9.46999 23.961 9.46999 23C9.46999 22.039 8.69097 21.26 7.72999 21.26C6.76901 21.26 5.98999 22.039 5.98999 23C5.98999 23.961 6.76901 24.74 7.72999 24.74Z" stroke="#00AF9A" stroke-width="1.25" stroke-linecap="round" stroke-linejoin="round"/>
<path d="M11.8201 38.83C12.7811 38.83 13.5601 38.051 13.5601 37.09C13.5601 36.129 12.7811 35.35 11.8201 35.35C10.8591 35.35 10.0801 36.129 10.0801 37.09C10.0801 38.051 10.8591 38.83 11.8201 38.83Z" stroke="#00AF9A" stroke-width="1.25" stroke-linecap="round" stroke-linejoin="round"/>
<path d="M18.44 34.29C19.4009 34.29 20.18 33.511 20.18 32.55C20.18 31.589 19.4009 30.81 18.44 30.81C17.479 30.81 16.7 31.589 16.7 32.55C16.7 33.511 17.479 34.29 18.44 34.29Z" stroke="#00AF9A" stroke-width="1.25" stroke-linecap="round" stroke-linejoin="round"/>
<path d="M29.9299 11.47C29.9299 12.43 30.7099 13.21 31.6699 13.21C32.6299 13.21 33.4099 12.43 33.4099 11.47C33.4099 11.41 33.4099 11.35 33.4099 11.29C33.3199 10.41 32.5799 9.73001 31.6799 9.73001C30.7199 9.73001 29.9399 10.51 29.9399 11.47H29.9299Z" stroke="#00AF9A" stroke-width="1.25" stroke-linecap="round" stroke-linejoin="round"/>
<path d="M42.77 24.7C43.731 24.7 44.51 23.921 44.51 22.96C44.51 21.999 43.731 21.22 42.77 21.22C41.8091 21.22 41.03 21.999 41.03 22.96C41.03 23.921 41.8091 24.7 42.77 24.7Z" stroke="#00AF9A" stroke-width="1.25" stroke-linecap="round" stroke-linejoin="round"/>
<path d="M38.6799 38.78C39.6409 38.78 40.4199 38.001 40.4199 37.04C40.4199 36.079 39.6409 35.3 38.6799 35.3C37.719 35.3 36.9399 36.079 36.9399 37.04C36.9399 38.001 37.719 38.78 38.6799 38.78Z" stroke="#00AF9A" stroke-width="1.25" stroke-linecap="round" stroke-linejoin="round"/>
<path d="M32.0701 34.25C33.0311 34.25 33.8101 33.471 33.8101 32.51C33.8101 31.549 33.0311 30.77 32.0701 30.77C31.1091 30.77 30.3301 31.549 30.3301 32.51C30.3301 33.471 31.1091 34.25 32.0701 34.25Z" stroke="#00AF9A" stroke-width="1.25" stroke-linecap="round" stroke-linejoin="round"/>
</g>
<defs>
<clipPath id="clip0_848_39953">
<rect width="46.5" height="47.88" fill="white" transform="translate(2 1)"/>
</clipPath>
</defs>
</svg>
