<svg viewBox="0 0 80 80" fill="none" xmlns="http://www.w3.org/2000/svg">
<path d="M49.6775 16.0046H62.2034V73.2526H17.855V16.0046H30.3926" stroke="currentcolor" stroke-width="1.5" stroke-linecap="round" stroke-linejoin="round"/>
<path d="M52.8062 17.4406C46.981 15.958 46.8176 11.3469 46.8176 7.58794C46.8176 3.829 43.8058 0.875549 40.1052 0.875549C36.4046 0.875549 33.2177 3.88737 33.2177 7.58794C33.2177 11.2885 33.0659 15.9346 27.2758 17.4522C24.5792 18.1527 22.6296 20.5458 22.6296 23.4408C22.6296 23.9195 22.9332 24.2113 23.295 24.2113H56.822C57.1838 24.2113 57.4874 23.9078 57.4874 23.5459C57.4874 20.5224 55.5145 18.1293 52.8062 17.4406Z" stroke="currentcolor" stroke-width="1.5" stroke-linecap="round" stroke-linejoin="round"/>
<path d="M40.0584 10.0394C41.3425 10.0394 42.3931 8.98879 42.3931 7.70468C42.3931 6.42057 41.3425 5.36993 40.0584 5.36993C38.7743 5.36993 37.7236 6.42057 37.7236 7.70468C37.7236 8.98879 38.7743 10.0394 40.0584 10.0394Z" fill="currentcolor"/>
<path d="M47.3661 10.1912H65.5071C66.9196 10.1912 68.0753 11.3352 68.0753 12.7477V76.5563C68.0753 77.9688 66.9313 79.1245 65.5071 79.1245H14.598C13.1855 79.1245 12.0298 77.9804 12.0298 76.5563L12.0531 12.7711C12.0531 11.3585 13.1972 10.2028 14.6214 10.2028H32.6689" stroke="currentcolor" stroke-width="1.5" stroke-linecap="round" stroke-linejoin="round"/>
<path d="M40.0468 59.0924C46.4206 59.0924 51.5921 53.9209 51.5921 47.5471C51.5921 41.1732 46.4206 36.0018 40.0468 36.0018C33.6729 36.0018 28.5015 41.1732 28.5015 47.5471C28.5015 53.9209 33.6729 59.0924 40.0468 59.0924Z" stroke="#00AF9A" stroke-width="1.5" stroke-linecap="round" stroke-linejoin="round"/>
<path d="M45.0665 42.5391L39.3697 51.7847L34.3267 47.5471" stroke="#00AF9A" stroke-width="1.5" stroke-linejoin="round"/>
</svg>
