<svg width="12" height="11" viewBox="0 0 12 11" fill="none" xmlns="http://www.w3.org/2000/svg">
<path fill-rule="evenodd" clip-rule="evenodd" d="M2.81804 0.696699C2.42751 0.306175 1.79435 0.306175 1.40383 0.696699C1.0133 1.08722 1.0133 1.72039 1.40383 2.11091L4.58581 5.29289L0.696719 9.18198C0.306195 9.5725 0.306195 10.2057 0.696719 10.5962C1.08724 10.9867 1.72041 10.9867 2.11093 10.5962L6.00002 6.70711L9.88911 10.5962C10.2796 10.9867 10.9128 10.9867 11.3033 10.5962C11.6938 10.2057 11.6938 9.57251 11.3033 9.18198L7.41423 5.29289L10.5962 2.11091C10.9867 1.72039 10.9867 1.08722 10.5962 0.696699C10.2057 0.306175 9.57252 0.306175 9.182 0.696699L6.00002 3.87868L2.81804 0.696699Z" fill="#1D252C"/>
</svg>
