<svg width="24" height="24" viewBox="0 0 24 24" fill="none" xmlns="http://www.w3.org/2000/svg">
<circle cx="12" cy="12" r="11.5" fill="#E5E8E9" stroke="#F5F6F6"/>
<g clip-path="url(#clip0_4095_36693)">
<path fill-rule="evenodd" clip-rule="evenodd" d="M7.75744 7.05025C7.56218 6.85499 7.2456 6.85499 7.05033 7.05025C6.85507 7.24551 6.85507 7.5621 7.05033 7.75736L11.293 12L7.05033 16.2426C6.85507 16.4379 6.85507 16.7545 7.05033 16.9497C7.2456 17.145 7.56218 17.145 7.75744 16.9497L12.0001 12.7071L16.2427 16.9497C16.438 17.145 16.7546 17.145 16.9498 16.9497C17.1451 16.7545 17.1451 16.4379 16.9498 16.2426L12.7072 12L16.9498 7.75736C17.1451 7.5621 17.1451 7.24551 16.9498 7.05025C16.7546 6.85499 16.438 6.85499 16.2427 7.05025L12.0001 11.2929L7.75744 7.05025Z" fill="#1D252C"/>
</g>
<defs>
<clipPath id="clip0_4095_36693">
<rect width="16" height="16" fill="white" transform="translate(4 4)"/>
</clipPath>
</defs>
</svg>
