<svg viewBox="0 0 50 50" fill="none" xmlns="http://www.w3.org/2000/svg">
<g clip-path="url(#clip0_848_39956)">
<path d="M41.0527 19.6504C40.8996 19.6504 40.7465 19.6696 40.5934 19.6696C40.5934 19.5158 40.6126 19.362 40.6126 19.2082C40.6126 12.2388 35.4738 6.59601 27.8661 6.59601C20.6987 6.59601 16.7561 10.768 15.4547 16.3724C14.9188 16.2474 14.3733 16.1705 13.7992 16.1705C9.91398 16.1705 6.76566 19.2851 6.76566 23.1303C6.76566 23.4283 6.79437 23.7167 6.82308 24.0051C6.80394 24.0051 6.7848 24.0051 6.76566 24.0051C3.36853 24.0051 0.612549 26.7351 0.612549 30.0997C0.612549 33.4642 3.36853 36.1943 6.76566 36.1943C7.06231 36.1943 6.2202 36.1943 6.2202 36.1943H41.0623C45.6748 36.1943 49.4164 32.4933 49.4164 27.9271C49.4164 23.361 45.6748 19.66 41.0623 19.66L41.0527 19.6504Z" stroke="currentcolor" stroke-width="1.25" stroke-miterlimit="10"/>
<path d="M37.9426 28.9653H12.0862V36.1847H37.9426V28.9653Z" stroke="#00AF9A" stroke-width="1.25" stroke-linejoin="round"/>
<path d="M37.9426 21.7556H12.0862V28.9749H37.9426V21.7556Z" stroke="#00AF9A" stroke-width="1.25" stroke-linejoin="round"/>
<path d="M37.9426 36.1847H12.0862V43.404H37.9426V36.1847Z" stroke="#00AF9A" stroke-width="1.25" stroke-linejoin="round"/>
<path d="M34.3351 31.8396H32.8997V33.2815H34.3351V31.8396Z" fill="currentcolor"/>
<path d="M31.4642 31.8396H30.0288V33.2815H31.4642V31.8396Z" fill="currentcolor"/>
<path d="M28.5934 31.8396H27.158V33.2815H28.5934V31.8396Z" fill="currentcolor"/>
<path d="M34.3351 39.0493H32.8997V40.4913H34.3351V39.0493Z" fill="currentcolor"/>
<path d="M31.4642 39.0493H30.0288V40.4913H31.4642V39.0493Z" fill="currentcolor"/>
<path d="M28.5934 39.0493H27.158V40.4913H28.5934V39.0493Z" fill="currentcolor"/>
</g>
<defs>
<clipPath id="clip0_848_39956">
<rect width="50" height="38" fill="white" transform="translate(0 6)"/>
</clipPath>
</defs>
</svg>
