<svg viewBox="0 0 50 50" fill="none" xmlns="http://www.w3.org/2000/svg">
<g clip-path="url(#clip0_848_39955)">
<path d="M36.4671 32.1735H40.2164C44.7328 32.1735 48.3959 28.6004 48.3959 24.1912C48.3959 19.7819 44.7328 16.2088 40.2164 16.2088C40.063 16.2088 39.9096 16.2278 39.7657 16.2278C39.7657 16.0758 39.7849 15.9333 39.7849 15.7812C39.7849 9.05326 34.7506 3.58917 27.3 3.58917C20.2808 3.58917 16.4164 7.62785 15.1411 13.0349C14.6233 12.9114 14.0767 12.8354 13.5205 12.8354C9.71366 12.8354 6.62599 15.8477 6.62599 19.5633C6.62599 19.8484 6.65476 20.1335 6.68352 20.4091C6.66435 20.4091 6.64517 20.4091 6.62599 20.4091C3.29859 20.4091 0.594482 23.0413 0.594482 26.2913C0.594482 29.5412 3.29859 32.1735 6.62599 32.1735H12.6" stroke="#00AF9A" stroke-width="1.25" stroke-miterlimit="10"/>
<path d="M24.5001 17.8813C21.2782 21.0742 12.533 20.105 12.533 20.105V30.3394C12.533 40.2318 24.5001 45.3918 24.5001 45.3918C24.5001 45.3918 36.4672 40.2318 36.4672 30.3394V20.105C36.4672 20.105 27.722 21.0742 24.5001 17.8813Z" stroke="currentcolor" stroke-width="1.25" stroke-linecap="round" stroke-linejoin="round"/>
<path d="M24.5002 20.4281C21.8728 23.0318 14.7385 22.2431 14.7385 22.2431V30.5865C14.7385 38.6544 24.5002 42.8641 24.5002 42.8641C24.5002 42.8641 34.2618 38.6544 34.2618 30.5865V22.2431C34.2618 22.2431 27.1372 23.0318 24.5002 20.4281Z" stroke="currentcolor" stroke-width="1.25" stroke-linecap="round" stroke-linejoin="round"/>
<path d="M24.5 35.9271C27.511 35.9271 29.9466 33.5134 29.9466 30.5295C29.9466 27.5456 27.511 25.1319 24.5 25.1319C21.4891 25.1319 19.0535 27.5456 19.0535 30.5295C19.0535 33.5134 21.4891 35.9271 24.5 35.9271Z" stroke="#00AB96" stroke-width="1.25" stroke-linecap="round" stroke-linejoin="round"/>
<path d="M26.8684 28.1823L24.1835 32.5061L21.8054 30.5295" stroke="#00AB96" stroke-width="1.25" stroke-linejoin="round"/>
</g>
<defs>
<clipPath id="clip0_848_39955">
<rect width="49" height="43" fill="white" transform="translate(0 3)"/>
</clipPath>
</defs>
</svg>
