<svg viewBox="0 0 80 80" fill="none" xmlns="http://www.w3.org/2000/svg">
<g clip-path="url(#clip0_842_38219)">
<path d="M70.6771 79.0551H8.94482V0.944885H48.1637L70.6771 22.9795V79.0551Z" stroke="currentcolor" stroke-width="1.5" stroke-linecap="round" stroke-linejoin="round"/>
<path d="M70.6771 79.0551H8.94482V0.944885H48.1637L70.6771 22.9795V79.0551Z" stroke="currentcolor" stroke-width="1.5" stroke-linecap="round" stroke-linejoin="round"/>
<path d="M70 23H48V1" stroke="currentcolor" stroke-width="1.5" stroke-linecap="round" stroke-linejoin="round"/>
<path d="M21.4802 36.0189L31.6724 36.0693" stroke="#00AF9A" stroke-width="1.5" stroke-linejoin="round"/>
<path d="M21.4802 45.8835L31.6724 45.9465" stroke="#00AF9A" stroke-width="1.5" stroke-linejoin="round"/>
<path d="M21.4802 55.7606L31.6724 55.811" stroke="#00AF9A" stroke-width="1.5" stroke-linejoin="round"/>
<path d="M35.4141 36.0189L45.6062 36.0693" stroke="#00AF9A" stroke-width="1.5" stroke-linejoin="round"/>
<path d="M35.4141 45.8835L45.6062 45.9465" stroke="#00AF9A" stroke-width="1.5" stroke-linejoin="round"/>
<path d="M21.4802 26.1417L31.6724 26.2047" stroke="#00AF9A" stroke-width="1.5" stroke-linejoin="round"/>
<path d="M35.4141 26.1417L45.6062 26.2047" stroke="#00AF9A" stroke-width="1.5" stroke-linejoin="round"/>
<path d="M35.4141 55.7606L45.6062 55.811" stroke="#00AF9A" stroke-width="1.5" stroke-linejoin="round"/>
<path d="M49.3354 36.0189L59.5402 36.0693" stroke="#00AF9A" stroke-width="1.5" stroke-linejoin="round"/>
<path d="M49.3354 45.8835L59.5402 45.9465" stroke="#00AF9A" stroke-width="1.5" stroke-linejoin="round"/>
<path d="M49.3354 55.7606L59.5402 55.811" stroke="#00AF9A" stroke-width="1.5" stroke-linejoin="round"/>
<path d="M21.4802 65.6252L31.6724 65.6882" stroke="#00AF9A" stroke-width="1.5" stroke-linejoin="round"/>
<path d="M35.4141 65.6252L45.6062 65.6882" stroke="#00AF9A" stroke-width="1.5" stroke-linejoin="round"/>
<path d="M49.3354 65.6252L59.5402 65.6882" stroke="#00AF9A" stroke-width="1.5" stroke-linejoin="round"/>
</g>
<defs>
<clipPath id="clip0_842_38219">
<rect width="63.622" height="80" fill="white" transform="translate(8)"/>
</clipPath>
</defs>
</svg>
