<svg viewBox="0 0 80 80" fill="none" xmlns="http://www.w3.org/2000/svg">
<g clip-path="url(#clip0_841_37715)">
<path d="M13.9238 51.5847H0.888672V65.8166H13.9238V51.5847Z" stroke="currentcolor" stroke-width="1.5" stroke-linejoin="round"/>
<path d="M79.0993 51.5847H66.0642V65.8166H79.0993V51.5847Z" stroke="currentcolor" stroke-width="1.5" stroke-linejoin="round"/>
<path d="M18.1662 51.5847H13.9238V65.8285H25.8213" stroke="currentcolor" stroke-width="1.5" stroke-miterlimit="10"/>
<path d="M66.0642 51.5847V65.8285H54.1667" stroke="currentcolor" stroke-width="1.5" stroke-miterlimit="10"/>
<path d="M79.0993 23.1207H66.0642V37.3527H79.0993V23.1207Z" stroke="currentcolor" stroke-width="1.5" stroke-miterlimit="10"/>
<path d="M13.9238 23.1207H0.888672V37.3527H13.9238V23.1207Z" stroke="currentcolor" stroke-width="1.5" stroke-miterlimit="10"/>
<path d="M32.2915 23.1207H26.959V8.88873H53.0292V23.1207H46.3694" stroke="currentcolor" stroke-width="1.5" stroke-miterlimit="10"/>
<path d="M79.0995 8.88873H53.0293V23.1207H79.0995V8.88873Z" stroke="currentcolor" stroke-width="1.5" stroke-linejoin="round"/>
<path d="M26.9589 8.88873H0.888672V23.1207H26.9589V8.88873Z" stroke="currentcolor" stroke-width="1.5" stroke-linejoin="round"/>
<path d="M60.708 37.3527H79.1112V51.5846H61.0517" stroke="currentcolor" stroke-width="1.5" stroke-miterlimit="10"/>
<path d="M18.1661 51.5846H0.888672V37.3527H19.8251" stroke="currentcolor" stroke-width="1.5" stroke-miterlimit="10"/>
<path d="M32.8721 71.3743C32.8721 71.3743 28.215 66.8239 28.4165 61.0055C28.6179 55.1871 31.3079 52.2127 32.2203 51.1462C33.1328 50.0797 37.15 45.6596 38.2639 41.7491C39.3778 37.8504 39.3185 34.7338 39.3185 34.7338C39.3185 34.7338 43.2646 37.4475 44.5681 43.0644C45.8835 48.6814 45.6821 53.3859 44.2363 57.2253C42.7906 61.0647 42.7906 60.6618 42.7906 60.6618C42.7906 60.6618 46.1916 59.9508 47.4714 55.7203C48.2891 53.0304 48.1943 52.9474 48.1943 52.9474C48.1943 52.9474 51.6545 55.5781 51.5241 60.5433C51.3938 65.5085 44.1889 71.635 44.0704 71.7061C44.1534 71.6706 46.2272 70.8292 47.1278 70.3789C49.6637 69.0991 53.3135 67.1083 55.5295 64.4538C59.9259 59.1569 61.3716 54.796 61.0516 48.2429C60.7198 41.6898 60.3999 41.0973 60.5895 38.3836C60.7791 35.67 62.367 31.6409 62.367 31.6409C62.367 31.6409 58.8238 32.4349 56.122 36.7365C53.432 41.0381 53.3017 43.2185 53.3017 43.2185C53.3017 43.2185 53.3728 38.5258 50.1495 31.9016C46.9263 25.2893 45.9428 22.7771 46.0139 20.5848C46.085 18.4044 46.085 16.615 48.2417 13.6999C48.2417 13.6999 38.0624 14.2331 32.2203 23.2274C26.3782 32.2216 27.2907 41.678 27.2907 41.678C27.2907 41.678 25.0866 39.9242 24.1741 36.855C23.5816 34.8879 23.2261 31.8305 23.2261 31.8305C23.2261 31.8305 15.014 40.9551 18.6283 53.457C22.2426 65.9588 32.8721 71.3625 32.8721 71.3625" stroke="#00AF9A" stroke-width="1.5" stroke-linecap="round" stroke-linejoin="round"/>
</g>
<defs>
<clipPath id="clip0_841_37715">
<rect width="80" height="64.8101" fill="white" transform="translate(0 8)"/>
</clipPath>
</defs>
</svg>
