<svg viewBox="0 0 80 80" fill="none" xmlns="http://www.w3.org/2000/svg">
<g clip-path="url(#clip0_890_65870)">
<g clip-path="url(#clip1_890_65870)">
<path d="M16.4326 66.9084V66.8912L26.984 55.6822" stroke="currentcolor" stroke-width="1.5" stroke-linejoin="round"/>
<path d="M20.5491 41.2781L14.9448 41.1572" stroke="currentcolor" stroke-width="1.5" stroke-linejoin="round"/>
<path d="M49.4531 20.7081L48.052 23.8515" stroke="currentcolor" stroke-width="1.5" stroke-linejoin="round"/>
<path d="M29.4054 25.1122L23.8357 16.8739L23.8184 16.8566" stroke="currentcolor" stroke-width="1.5" stroke-linejoin="round"/>
<path d="M63.585 67.2884L53.2412 55.2504" stroke="currentcolor" stroke-width="1.5" stroke-linejoin="round"/>
<path d="M37.7081 58.6701L37.0854 63.0397" stroke="currentcolor" stroke-width="1.5" stroke-linejoin="round"/>
<path d="M66.0067 48.0138H65.9894L58.5688 46.2003" stroke="currentcolor" stroke-width="1.5" stroke-linejoin="round"/>
<path d="M63.7407 31.9171L55.6628 35.2332" stroke="currentcolor" stroke-width="1.5" stroke-linejoin="round"/>
<path d="M13.1113 65.5786C15.7924 65.5786 17.9546 67.7374 17.9546 70.4145C17.9546 73.0915 15.7924 75.2504 13.1113 75.2504C10.4302 75.2504 8.26807 73.0915 8.26807 70.4145C8.26807 67.7374 10.4475 65.5786 13.1113 65.5786Z" stroke="currentcolor" stroke-width="1.5" stroke-linejoin="round"/>
<path d="M8.00873 47.9275C11.8395 47.9275 14.9449 44.8267 14.9449 41.0017C14.9449 37.1767 11.8395 34.076 8.00873 34.076C4.17796 34.076 1.07251 37.1767 1.07251 41.0017C1.07251 44.8267 4.17796 47.9275 8.00873 47.9275Z" stroke="currentcolor" stroke-width="1.5" stroke-linejoin="round"/>
<path d="M19.3558 2.19342C23.7839 2.19342 27.3817 5.78582 27.3817 10.2072C27.3817 14.6287 23.7839 18.2211 19.3558 18.2211C14.9277 18.2211 11.3298 14.6287 11.3298 10.2072C11.3298 5.78582 14.9277 2.19342 19.3558 2.19342Z" stroke="currentcolor" stroke-width="1.5" stroke-linejoin="round"/>
<path d="M53.7948 21.6926C48.104 21.6926 43.4856 17.0812 43.4856 11.399C43.4856 5.71674 48.104 1.0708 53.7948 1.0708C59.4856 1.0708 64.104 5.6822 64.104 11.3817C64.104 17.0812 59.4856 21.6753 53.7948 21.6753V21.6926Z" stroke="currentcolor" stroke-width="1.5" stroke-linejoin="round"/>
<path d="M36.1168 62.9706C39.9049 62.9706 42.9838 66.0276 42.9838 69.81C42.9838 73.5924 39.9049 76.6667 36.1168 76.6667C32.3287 76.6667 29.2498 73.6097 29.2498 69.81C29.2498 66.0104 32.3287 62.9706 36.1168 62.9706Z" stroke="currentcolor" stroke-width="1.5" stroke-linejoin="round"/>
<path d="M68.6357 65.095C72.4584 65.095 75.5719 68.1865 75.5719 72.0034C75.5719 75.8204 72.4584 78.9292 68.6357 78.9292C64.813 78.9292 61.7168 75.8376 61.7168 72.0034C61.7168 68.1692 64.813 65.095 68.6357 65.095Z" stroke="currentcolor" stroke-width="1.5" stroke-linejoin="round"/>
<path d="M72.3547 43.0225C75.9699 43.0225 78.9104 45.9586 78.9104 49.5855C78.9104 53.2124 75.9699 56.1313 72.3547 56.1313C68.7396 56.1313 65.7991 53.1952 65.7991 49.5855C65.7991 45.9758 68.7396 43.0225 72.3547 43.0225Z" stroke="currentcolor" stroke-width="1.5" stroke-linejoin="round"/>
<path d="M68.1342 25.3195C70.7633 25.3195 72.9082 27.4611 72.9082 30.0864C72.9082 32.7116 70.7806 34.8532 68.1342 34.8532C65.4877 34.8532 63.3601 32.7116 63.3601 30.0864C63.3601 27.4611 65.4877 25.3195 68.1342 25.3195Z" stroke="currentcolor" stroke-width="1.5" stroke-linejoin="round"/>
<path d="M50.8195 35.4577C49.799 33.5751 49.9374 31.5198 50.9752 29.7236C49.2801 28.2211 47.3428 27.0466 45.1979 26.3903C44.2466 28.1692 42.3093 29.2746 40.1471 29.2746C37.9849 29.2746 36.2033 28.0483 35.2693 26.3558C34.2314 26.7357 33.1071 27.1157 32.0866 27.772C31.066 28.4283 30.2876 29.0501 29.4401 29.7927C30.4606 31.4853 30.4779 33.696 29.4401 35.5786C28.4022 37.4611 26.4822 38.3938 24.5104 38.3074C24.0433 40.4663 23.9914 42.7806 24.4585 45.0432C26.4304 45.0432 28.3849 46.0276 29.492 47.8929C30.599 49.7582 30.4606 51.8825 29.4228 53.6615C31.1179 55.1641 33.0552 56.3385 35.2001 56.9948C36.1514 55.2159 38.0195 54.076 40.1817 54.076C42.3439 54.076 44.1601 55.2504 45.0941 56.943C46.132 56.563 47.2217 56.2176 48.2595 55.5613C49.2974 54.905 50.0585 54.2832 50.906 53.5406C49.8855 51.848 49.8682 49.6373 50.906 47.7547C51.9439 45.8722 53.8639 44.9395 55.8358 45.0259C56.3028 42.867 56.372 40.5009 55.9049 38.2556C53.8466 38.3592 51.8747 37.323 50.8368 35.4404L50.8195 35.4577ZM40.0779 47.3057C36.9817 47.3057 34.3525 44.7668 34.3698 41.5717C34.3871 38.3765 36.9298 35.8376 40.1125 35.8376C43.2952 35.8376 45.8379 38.3765 45.8206 41.5717C45.8033 44.7668 43.1741 47.3057 40.0779 47.3057Z" stroke="#00AF9A" stroke-width="1.25" stroke-linecap="round" stroke-linejoin="round"/>
</g>
</g>
<defs>
<clipPath id="clip0_890_65870">
<rect width="80" height="80" fill="white"/>
</clipPath>
<clipPath id="clip1_890_65870">
<rect width="80" height="80" fill="white"/>
</clipPath>
</defs>
</svg>
