<svg width="18" height="18" viewBox="0 0 18 18" fill="none" xmlns="http://www.w3.org/2000/svg">
<g id="globe.xs">
<path id="Globe" fill-rule="evenodd" clip-rule="evenodd" d="M6.64845 2.67094C5.2146 3.20393 4.01088 4.21025 3.22722 5.5H5.76305C5.90541 4.73988 6.09359 4.04332 6.32046 3.43476C6.42025 3.16708 6.52949 2.91112 6.64845 2.67094ZM2.25 9C2.25 8.30368 2.35545 7.63198 2.55125 7H5.55096C5.48757 7.64163 5.45422 8.31206 5.45422 9C5.45422 9.51123 5.47263 10.0128 5.50809 10.5H2.41721C2.30778 10.0176 2.25 9.51556 2.25 9ZM2.95148 12C3.7113 13.5292 5.03394 14.7291 6.64834 15.3291C6.52942 15.0891 6.42023 14.8332 6.32047 14.5656C6.04467 13.8259 5.82604 12.956 5.67741 12H2.95148ZM7.19723 12C7.32957 12.773 7.51043 13.4635 7.72596 14.0416C7.96071 14.6713 8.2222 15.1285 8.47454 15.4148C8.7279 15.7022 8.90735 15.75 9 15.75C9.09291 15.75 9.27242 15.7022 9.52571 15.4148C9.77802 15.1286 10.0394 14.6713 10.2741 14.0417C10.4896 13.4636 10.6704 12.773 10.8026 12H7.19723ZM12.3224 12C12.1739 12.956 11.9554 13.8258 11.6797 14.5656C11.5799 14.8332 11.4707 15.0891 11.3518 15.3292C12.9664 14.7293 14.289 13.5293 15.0487 12H12.3224ZM15.5828 10.5H12.4916C12.5271 10.0128 12.5454 9.51123 12.5454 9C12.5454 8.31206 12.5121 7.64164 12.4488 7H15.4488C15.6446 7.63198 15.75 8.30368 15.75 9C15.75 9.51557 15.6922 10.0176 15.5828 10.5ZM10.9873 10.5H7.01237C6.97441 10.0183 6.95422 9.51657 6.95422 9C6.95422 8.30202 6.9911 7.63106 7.05889 7H10.9409C11.0086 7.63105 11.0454 8.30201 11.0454 9C11.0454 9.51657 11.0253 10.0183 10.9873 10.5ZM12.2368 5.5H14.773C13.9894 4.21017 12.7858 3.2038 11.3517 2.67084C11.4707 2.91107 11.5799 3.1671 11.6797 3.43484C11.9065 4.04338 12.0945 4.73992 12.2368 5.5ZM7.292 5.5H10.7079C10.5887 4.92747 10.4419 4.40898 10.2741 3.95866C10.0394 3.32895 9.77799 2.87161 9.52566 2.58528C9.27233 2.29782 9.09283 2.25 9 2.25C8.90743 2.25 8.72799 2.29773 8.47459 2.58528C8.22222 2.87164 7.96073 3.32902 7.72597 3.95873C7.5581 4.40904 7.41126 4.92751 7.292 5.5ZM9 0.75C4.44379 0.75 0.75 4.44379 0.75 9C0.75 13.5573 4.44385 17.25 9 17.25C13.5572 17.25 17.25 13.5572 17.25 9C17.25 4.44385 13.5573 0.75 9 0.75Z" fill="currentColor"/>
</g>
</svg>
