<svg viewBox="0 0 80 80" fill="none" xmlns="http://www.w3.org/2000/svg">
<path d="M39.9912 2C39.9912 2 59.443 4.01014 61.3183 35.0693" stroke="currentcolor" stroke-width="1.5" stroke-linejoin="round"/>
<path d="M39.9912 17.2599V2" stroke="currentcolor" stroke-width="1.5" stroke-linecap="round" stroke-linejoin="round"/>
<path d="M39.9912 52.9033V27.1391" stroke="currentcolor" stroke-width="1.5" stroke-linejoin="round"/>
<path d="M39.9912 78.0299V62.77" stroke="currentcolor" stroke-width="1.5" stroke-linejoin="round"/>
<path d="M39.9912 78.0301C39.9912 78.0301 20.5394 76.0199 18.6641 44.973" stroke="currentcolor" stroke-width="1.5" stroke-linejoin="round"/>
<path d="M66.4419 40.0089H78.0002" stroke="currentcolor" stroke-width="1.5" stroke-linecap="round" stroke-linejoin="round"/>
<path d="M39.9912 40.0089H56.5626" stroke="currentcolor" stroke-width="1.5" stroke-linejoin="round"/>
<path d="M23.4441 40.0089H39.991" stroke="currentcolor" stroke-width="1.5" stroke-linejoin="round"/>
<path d="M1.96997 40.0089H13.5651" stroke="currentcolor" stroke-width="1.5" stroke-linejoin="round"/>
<path d="M61.3183 44.9362C59.4553 76.0198 39.9912 78.03 39.9912 78.03" stroke="currentcolor" stroke-width="1.5" stroke-linejoin="round"/>
<path d="M6.49279 58.002C3.6124 52.6458 1.96997 46.5173 1.96997 40.0088C1.96997 33.5004 3.60015 27.3841 6.48054 22.0278" stroke="currentcolor" stroke-width="1.5" stroke-linecap="round" stroke-linejoin="round"/>
<path d="M67.7407 65.9813C60.8033 73.3845 50.9364 78.0177 39.9909 78.0177C29.0455 78.0177 19.1909 73.3968 12.2534 65.9936" stroke="currentcolor" stroke-width="1.5" stroke-linecap="round" stroke-linejoin="round"/>
<path d="M73.5017 22.0524C76.3698 27.3965 78 33.5127 78 40.0212C78 46.5296 76.3698 52.6213 73.5017 57.9654" stroke="currentcolor" stroke-width="1.5" stroke-linecap="round" stroke-linejoin="round"/>
<path d="M12.2412 14.0363C19.1787 6.63313 29.0455 2 39.991 2C50.9365 2 60.8156 6.63313 67.753 14.0486" stroke="currentcolor" stroke-width="1.5" stroke-linecap="round" stroke-linejoin="round"/>
<path d="M35.0517 22.0892C26.5698 21.7092 19.7672 20.3855 13.9207 19.025" stroke="currentcolor" stroke-width="1.5" stroke-linejoin="round"/>
<path d="M66.0862 19.025C60.2519 20.3977 53.4738 21.7092 44.9185 22.0892" stroke="currentcolor" stroke-width="1.5" stroke-linejoin="round"/>
<path d="M44.9553 57.9531C53.4371 58.3331 60.2398 59.6568 66.0863 61.0174" stroke="currentcolor" stroke-width="1.5" stroke-linejoin="round"/>
<path d="M13.9207 61.0174C19.755 59.6446 26.5331 58.3331 35.0762 57.9531" stroke="currentcolor" stroke-width="1.5" stroke-linejoin="round"/>
<path d="M18.6641 35.1061C20.5271 4.01014 39.9912 2 39.9912 2" stroke="currentcolor" stroke-width="1.5" stroke-linejoin="round"/>
<path d="M56.5627 40.0088C56.5627 37.3491 58.6709 35.1796 61.3185 35.0815C61.3797 35.0815 61.441 35.0815 61.5023 35.0815C64.2234 35.0815 66.4419 37.2878 66.4419 40.0211C66.4419 42.7544 64.2356 44.9607 61.5023 44.9607C58.769 44.9607 56.5627 42.7544 56.5627 40.0211V40.0088Z" stroke="#00AF9A" stroke-width="1.5" stroke-linecap="round" stroke-linejoin="round"/>
<path d="M70.8785 67.1214C73.6066 67.1214 75.8181 64.9099 75.8181 62.1819C75.8181 59.4538 73.6066 57.2423 70.8785 57.2423C68.1505 57.2423 65.939 59.4538 65.939 62.1819C65.939 64.9099 68.1505 67.1214 70.8785 67.1214Z" stroke="#00AF9A" stroke-width="1.5" stroke-linecap="round" stroke-linejoin="round"/>
<path d="M40.0155 62.7824C42.7435 62.7824 44.955 60.5709 44.955 57.8429C44.955 55.1148 42.7435 52.9033 40.0155 52.9033C37.2874 52.9033 35.0759 55.1148 35.0759 57.8429C35.0759 60.5709 37.2874 62.7824 40.0155 62.7824Z" stroke="#00AF9A" stroke-width="1.5" stroke-linecap="round" stroke-linejoin="round"/>
<path d="M9.12804 22.8001C11.8561 22.8001 14.0676 20.5886 14.0676 17.8606C14.0676 15.1325 11.8561 12.921 9.12804 12.921C6.39999 12.921 4.18848 15.1325 4.18848 17.8606C4.18848 20.5886 6.39999 22.8001 9.12804 22.8001Z" stroke="#00AF9A" stroke-width="1.5" stroke-linecap="round" stroke-linejoin="round"/>
<path d="M70.8787 22.8001C68.5499 22.8001 66.601 21.1945 66.0862 19.025C66.0004 18.6573 65.9514 18.2651 65.9514 17.8606C65.9514 15.1395 68.1577 12.921 70.891 12.921C73.6243 12.921 75.8305 15.1273 75.8305 17.8606C75.8305 20.5939 73.6243 22.8001 70.891 22.8001H70.8787Z" stroke="#00AF9A" stroke-width="1.5" stroke-linecap="round" stroke-linejoin="round"/>
<path d="M39.9911 27.1391C42.7191 27.1391 44.9306 24.9276 44.9306 22.1996C44.9306 19.4715 42.7191 17.26 39.9911 17.26C37.263 17.26 35.0515 19.4715 35.0515 22.1996C35.0515 24.9276 37.263 27.1391 39.9911 27.1391Z" stroke="#00AF9A" stroke-width="1.5" stroke-linecap="round" stroke-linejoin="round"/>
<path d="M9.12804 67.1214C11.8561 67.1214 14.0676 64.9099 14.0676 62.1819C14.0676 59.4538 11.8561 57.2423 9.12804 57.2423C6.39999 57.2423 4.18848 59.4538 4.18848 62.1819C4.18848 64.9099 6.39999 67.1214 9.12804 67.1214Z" stroke="#00AF9A" stroke-width="1.5" stroke-linecap="round" stroke-linejoin="round"/>
<path d="M18.5043 44.9729C21.2323 44.9729 23.4438 42.7614 23.4438 40.0333C23.4438 37.3053 21.2323 35.0938 18.5043 35.0938C15.7762 35.0938 13.5647 37.3053 13.5647 40.0333C13.5647 42.7614 15.7762 44.9729 18.5043 44.9729Z" stroke="#00AF9A" stroke-width="1.5" stroke-linecap="round" stroke-linejoin="round"/>
</svg>
