<svg width="17" height="16" viewBox="0 0 17 16" fill="none" xmlns="http://www.w3.org/2000/svg">
<path fill-rule="evenodd" clip-rule="evenodd" d="M12.8765 5.04729C16.2389 5.04729 16.8604 7.2601 16.8604 10.1386V16H13.5396V10.803C13.5396 9.56312 13.5179 7.96868 11.8133 7.96868C10.0845 7.96868 9.82135 9.31988 9.82135 10.714V16H6.50369V5.31231H9.6876V6.77362H9.73301C10.1759 5.93316 11.2603 5.04729 12.8765 5.04729ZM4.41952 5.31287V15.9999H1.09564V5.31287H4.41952ZM2.75808 0C3.82063 0 4.68348 0.862232 4.68348 1.9254C4.68348 2.98919 3.82063 3.85205 2.75808 3.85205C1.69118 3.85205 0.830811 2.98919 0.830811 1.9254C0.830811 0.862232 1.69118 0 2.75808 0Z" fill="currentColor"/>
</svg>
