<svg viewBox="0 0 50 50" fill="none" xmlns="http://www.w3.org/2000/svg">
<g clip-path="url(#clip0_848_39958)">
<path d="M32.2096 32.891L30.2546 34.8062L28.3206 32.9013" stroke="#00AF9A" stroke-width="1.25" stroke-linecap="square" stroke-linejoin="round"/>
<path d="M18.7136 24.8261L18.7031 32.6529L30.2967 26.9484L30.2547 34.8062" stroke="#00AF9A" stroke-width="1.25" stroke-linecap="round" stroke-linejoin="round"/>
<path d="M16.7585 26.7414L18.7136 24.8261L20.6476 26.7414" stroke="#00AF9A" stroke-width="1.25" stroke-linecap="square" stroke-linejoin="round"/>
<path d="M18.6926 21.9894C19.8884 21.9894 20.8579 21.0346 20.8579 19.8567C20.8579 18.6789 19.8884 17.7241 18.6926 17.7241C17.4968 17.7241 16.5273 18.6789 16.5273 19.8567C16.5273 21.0346 17.4968 21.9894 18.6926 21.9894Z" stroke="#00AF9A" stroke-width="1.25" stroke-linecap="round" stroke-linejoin="round"/>
<path d="M30.2546 41.9187C31.4504 41.9187 32.4199 40.9638 32.4199 39.786C32.4199 38.6081 31.4504 37.6533 30.2546 37.6533C29.0588 37.6533 28.0894 38.6081 28.0894 39.786C28.0894 40.9638 29.0588 41.9187 30.2546 41.9187Z" stroke="#00AF9A" stroke-width="1.25" stroke-linecap="round" stroke-linejoin="round"/>
<path d="M17.2737 38.3469L20.1642 41.194" stroke="currentcolor" stroke-width="1.25" stroke-linecap="square" stroke-linejoin="round"/>
<path d="M17.2737 41.194L20.1642 38.3469" stroke="currentcolor" stroke-width="1.25" stroke-linecap="square" stroke-linejoin="round"/>
<path d="M28.8252 18.4281L31.7157 21.2751" stroke="currentcolor" stroke-width="1.25" stroke-linecap="square" stroke-linejoin="round"/>
<path d="M28.8252 21.2751L31.7157 18.4281" stroke="currentcolor" stroke-width="1.25" stroke-linecap="square" stroke-linejoin="round"/>
<path d="M30.4543 9.87662H38.2114V44.776H10.7673V9.87662H18.5139" stroke="currentcolor" stroke-width="1.25" stroke-linecap="round" stroke-linejoin="round"/>
<path d="M32.3884 10.7462C28.7831 9.83519 28.6886 7.02957 28.6886 4.74159C28.6886 2.45362 26.8281 0.652222 24.5367 0.652222C22.2453 0.652222 20.2693 2.48467 20.2693 4.74159C20.2693 6.99851 20.1747 9.83519 16.5904 10.7462C14.9192 11.1707 13.7104 12.6305 13.7104 14.4008C13.7104 14.6907 13.8996 14.877 14.1204 14.877H34.869C35.1002 14.877 35.2789 14.6907 35.2789 14.4733C35.2789 12.6305 34.0596 11.1707 32.3779 10.7462H32.3884Z" stroke="currentcolor" stroke-width="1.25" stroke-linecap="round" stroke-linejoin="round"/>
<path d="M24.5052 6.2324C25.304 6.2324 25.9452 5.60088 25.9452 4.81406C25.9452 4.02724 25.304 3.39572 24.5052 3.39572C23.7064 3.39572 23.0652 4.02724 23.0652 4.81406C23.0652 5.60088 23.7064 6.2324 24.5052 6.2324Z" fill="currentcolor"/>
<path d="M29.0354 6.32559H40.2611C41.1335 6.32559 41.8482 7.01923 41.8482 7.88887V46.7845C41.8482 47.6438 41.1335 48.3478 40.2611 48.3478H8.74926C7.87685 48.3478 7.16211 47.6438 7.16211 46.7845L7.18313 7.89922C7.18313 7.03994 7.89788 6.33594 8.77028 6.33594H19.9434" stroke="currentcolor" stroke-width="1.25" stroke-linecap="round" stroke-linejoin="round"/>
</g>
<defs>
<clipPath id="clip0_848_39958">
<rect width="36" height="49" fill="white" transform="translate(6.5)"/>
</clipPath>
</defs>
</svg>
