<svg width="17" height="16" viewBox="0 0 17 16" fill="none" xmlns="http://www.w3.org/2000/svg">
<path fill-rule="evenodd" clip-rule="evenodd" d="M0.169479 5.39427C6.02699 5.39427 10.7751 10.1425 10.7751 16H7.66671C7.66671 11.8594 4.30991 8.50282 0.169479 8.50282V5.39427ZM0.169449 0C9.00594 0 16.1694 7.16341 16.1694 16H12.9695C12.9695 8.93074 7.23869 3.20006 0.169449 3.20006V0ZM2.3638 11.6114C3.57564 11.6114 4.55808 12.5939 4.55808 13.8057C4.55808 15.0174 3.57564 16 2.3638 16C1.15185 16 0.169434 15.0174 0.169434 13.8057C0.169434 12.5939 1.15185 11.6114 2.3638 11.6114Z" fill="currentColor"/>
</svg>
