<svg viewBox="0 0 80 80" fill="none" xmlns="http://www.w3.org/2000/svg">
<g clip-path="url(#clip0_890_65871)">
<g clip-path="url(#clip1_890_65871)">
<path d="M1.28908 37.396C0.580084 37.396 0 36.8546 0 36.1456V36.0812C0 35.3722 0.580084 34.7921 1.28908 34.7921C1.99807 34.7921 2.57815 35.3722 2.57815 36.0812C2.57815 36.7902 1.99807 37.396 1.28908 37.396Z" fill="currentcolor"/>
<path d="M1.28908 32.446C0.580084 32.446 0 31.9304 0 31.2214V31.1054C0 30.3964 0.580084 29.8163 1.28908 29.8163C1.99807 29.8163 2.57815 30.3964 2.57815 31.1054C2.57815 31.8143 1.99807 32.4589 1.28908 32.4589V32.446ZM1.28908 27.4702C0.580084 27.4702 0 26.9545 0 26.2455V26.1295C0 25.4205 0.580084 24.8405 1.28908 24.8405C1.99807 24.8405 2.57815 25.4205 2.57815 26.1295C2.57815 26.8385 1.99807 27.4831 1.28908 27.4831V27.4702ZM1.28908 22.4943C0.580084 22.4943 0 21.9787 0 21.2697V21.1537C0 20.4447 0.580084 19.8646 1.28908 19.8646C1.99807 19.8646 2.57815 20.4447 2.57815 21.1537C2.57815 21.8627 1.99807 22.5072 1.28908 22.5072V22.4943ZM1.28908 17.5185C0.580084 17.5185 0 17.0029 0 16.2939V16.1779C0 15.4689 0.580084 14.8888 1.28908 14.8888C1.99807 14.8888 2.57815 15.4689 2.57815 16.1779C2.57815 16.8869 1.99807 17.5314 1.28908 17.5314V17.5185ZM1.28908 12.5427C0.580084 12.5427 0 12.027 0 11.3181V11.202C0 10.493 0.580084 9.91296 1.28908 9.91296C1.99807 9.91296 2.57815 10.493 2.57815 11.202C2.57815 11.911 1.99807 12.5556 1.28908 12.5556V12.5427ZM1.28908 7.56685C0.580084 7.56685 0 7.05122 0 6.34223V6.22621C0 5.51722 0.580084 4.93713 1.28908 4.93713C1.99807 4.93713 2.57815 5.51722 2.57815 6.22621C2.57815 6.9352 1.99807 7.57974 1.28908 7.57974V7.56685Z" fill="currentcolor"/>
<path d="M1.28908 2.60393C0.580084 2.60393 0 2.06252 0 1.34064V1.27618C0 0.580084 0.580084 0 1.28908 0C1.99807 0 2.60393 0.580084 2.60393 1.28908C2.60393 1.83049 2.29455 2.29455 1.83049 2.48791C1.66291 2.56526 1.48244 2.61682 1.28908 2.61682V2.60393Z" fill="currentcolor"/>
<path d="M73.6191 2.57815C72.9101 2.57815 72.2655 1.99807 72.2655 1.28908C72.2655 0.580084 72.7812 0 73.4902 0H73.6191C74.3281 0 74.9081 0.580084 74.9081 1.28908C74.9081 1.99807 74.3281 2.57815 73.6191 2.57815ZM68.4628 2.57815C67.7538 2.57815 67.1092 1.99807 67.1092 1.28908C67.1092 0.580084 67.6249 0 68.3339 0H68.4628C69.1718 0 69.7519 0.580084 69.7519 1.28908C69.7519 1.99807 69.1718 2.57815 68.4628 2.57815ZM63.3065 2.57815C62.5975 2.57815 61.9529 1.99807 61.9529 1.28908C61.9529 0.580084 62.4686 0 63.1776 0H63.3065C64.0155 0 64.5956 0.580084 64.5956 1.28908C64.5956 1.99807 64.0155 2.57815 63.3065 2.57815ZM58.1502 2.57815C57.4412 2.57815 56.7966 1.99807 56.7966 1.28908C56.7966 0.580084 57.3123 0 58.0213 0H58.1502C58.8592 0 59.4393 0.580084 59.4393 1.28908C59.4393 1.99807 58.8592 2.57815 58.1502 2.57815ZM52.9939 2.57815C52.2849 2.57815 51.6403 1.99807 51.6403 1.28908C51.6403 0.580084 52.156 0 52.865 0H52.9939C53.7029 0 54.283 0.580084 54.283 1.28908C54.283 1.99807 53.7029 2.57815 52.9939 2.57815ZM47.8376 2.57815C47.1286 2.57815 46.484 1.99807 46.484 1.28908C46.484 0.580084 46.9997 0 47.7087 0H47.8376C48.5466 0 49.1267 0.580084 49.1267 1.28908C49.1267 1.99807 48.5466 2.57815 47.8376 2.57815ZM42.6813 2.57815C41.9723 2.57815 41.3277 1.99807 41.3277 1.28908C41.3277 0.580084 41.8434 0 42.5524 0H42.6813C43.3903 0 43.9704 0.580084 43.9704 1.28908C43.9704 1.99807 43.3903 2.57815 42.6813 2.57815ZM37.525 2.57815C36.816 2.57815 36.1714 1.99807 36.1714 1.28908C36.1714 0.580084 36.6871 0 37.3961 0H37.525C38.234 0 38.8141 0.580084 38.8141 1.28908C38.8141 1.99807 38.234 2.57815 37.525 2.57815ZM32.3687 2.57815C31.6597 2.57815 31.0151 1.99807 31.0151 1.28908C31.0151 0.580084 31.5308 0 32.2398 0H32.3687C33.0777 0 33.6578 0.580084 33.6578 1.28908C33.6578 1.99807 33.0777 2.57815 32.3687 2.57815ZM27.2124 2.57815C26.5034 2.57815 25.8588 1.99807 25.8588 1.28908C25.8588 0.580084 26.3745 0 27.0835 0H27.2124C27.9214 0 28.5014 0.580084 28.5014 1.28908C28.5014 1.99807 27.9214 2.57815 27.2124 2.57815ZM22.0561 2.57815C21.3471 2.57815 20.7025 1.99807 20.7025 1.28908C20.7025 0.580084 21.2182 0 21.9272 0H22.0561C22.7651 0 23.3451 0.580084 23.3451 1.28908C23.3451 1.99807 22.7651 2.57815 22.0561 2.57815ZM16.8998 2.57815C16.1908 2.57815 15.5462 1.99807 15.5462 1.28908C15.5462 0.580084 16.0619 0 16.7709 0H16.8998C17.6088 0 18.1888 0.580084 18.1888 1.28908C18.1888 1.99807 17.6088 2.57815 16.8998 2.57815ZM11.7435 2.57815C11.0345 2.57815 10.3899 1.99807 10.3899 1.28908C10.3899 0.580084 10.9056 0 11.6146 0H11.7435C12.4525 0 13.0325 0.580084 13.0325 1.28908C13.0325 1.99807 12.4525 2.57815 11.7435 2.57815ZM6.58717 2.57815C5.87818 2.57815 5.23364 1.99807 5.23364 1.28908C5.23364 0.580084 5.74927 0 6.45826 0H6.58717C7.29616 0 7.87625 0.580084 7.87625 1.28908C7.87625 1.99807 7.29616 2.57815 6.58717 2.57815Z" fill="currentcolor"/>
<path d="M78.7108 2.60394C78.1694 2.60394 77.7053 2.29457 77.512 1.8305C77.4346 1.66292 77.3831 1.48245 77.3831 1.2762C77.3831 0.567205 77.9245 -0.0128784 78.6335 -0.0128784H78.6979C79.4069 -0.0128784 79.987 0.567205 79.987 1.2762C79.987 1.98519 79.4069 2.59105 78.6979 2.59105L78.7108 2.60394Z" fill="currentcolor"/>
<path d="M78.711 74.9081C78.002 74.9081 77.4219 74.3281 77.4219 73.6191C77.4219 72.9101 78.002 72.2655 78.711 72.2655C79.4199 72.2655 80 72.7812 80 73.4902V73.6191C80 74.3281 79.4199 74.9081 78.711 74.9081ZM78.711 69.7519C78.002 69.7519 77.4219 69.1718 77.4219 68.4628C77.4219 67.7538 78.002 67.1092 78.711 67.1092C79.4199 67.1092 80 67.6249 80 68.3339V68.4628C80 69.1718 79.4199 69.7519 78.711 69.7519ZM78.711 64.5956C78.002 64.5956 77.4219 64.0155 77.4219 63.3065C77.4219 62.5975 78.002 61.9529 78.711 61.9529C79.4199 61.9529 80 62.4686 80 63.1776V63.3065C80 64.0155 79.4199 64.5956 78.711 64.5956ZM78.711 59.4393C78.002 59.4393 77.4219 58.8592 77.4219 58.1502C77.4219 57.4412 78.002 56.7966 78.711 56.7966C79.4199 56.7966 80 57.3123 80 58.0213V58.1502C80 58.8592 79.4199 59.4393 78.711 59.4393ZM78.711 54.283C78.002 54.283 77.4219 53.7029 77.4219 52.9939C77.4219 52.2849 78.002 51.6403 78.711 51.6403C79.4199 51.6403 80 52.156 80 52.865V52.9939C80 53.7029 79.4199 54.283 78.711 54.283ZM78.711 49.1267C78.002 49.1267 77.4219 48.5466 77.4219 47.8376C77.4219 47.1286 78.002 46.484 78.711 46.484C79.4199 46.484 80 46.9997 80 47.7087V47.8376C80 48.5466 79.4199 49.1267 78.711 49.1267ZM78.711 43.9704C78.002 43.9704 77.4219 43.3903 77.4219 42.6813C77.4219 41.9723 78.002 41.3277 78.711 41.3277C79.4199 41.3277 80 41.8434 80 42.5524V42.6813C80 43.3903 79.4199 43.9704 78.711 43.9704ZM78.711 38.8141C78.002 38.8141 77.4219 38.234 77.4219 37.525C77.4219 36.816 78.002 36.1714 78.711 36.1714C79.4199 36.1714 80 36.6871 80 37.3961V37.525C80 38.234 79.4199 38.8141 78.711 38.8141ZM78.711 33.6578C78.002 33.6578 77.4219 33.0777 77.4219 32.3687C77.4219 31.6597 78.002 31.0151 78.711 31.0151C79.4199 31.0151 80 31.5308 80 32.2398V32.3687C80 33.0777 79.4199 33.6578 78.711 33.6578ZM78.711 28.5014C78.002 28.5014 77.4219 27.9214 77.4219 27.2124C77.4219 26.5034 78.002 25.8588 78.711 25.8588C79.4199 25.8588 80 26.3745 80 27.0835V27.2124C80 27.9214 79.4199 28.5014 78.711 28.5014ZM78.711 23.3451C78.002 23.3451 77.4219 22.7651 77.4219 22.0561C77.4219 21.3471 78.002 20.7025 78.711 20.7025C79.4199 20.7025 80 21.2182 80 21.9272V22.0561C80 22.7651 79.4199 23.3451 78.711 23.3451ZM78.711 18.1888C78.002 18.1888 77.4219 17.6088 77.4219 16.8998C77.4219 16.1908 78.002 15.5462 78.711 15.5462C79.4199 15.5462 80 16.0619 80 16.7709V16.8998C80 17.6088 79.4199 18.1888 78.711 18.1888ZM78.711 13.0325C78.002 13.0325 77.4219 12.4525 77.4219 11.7435C77.4219 11.0345 78.002 10.3899 78.711 10.3899C79.4199 10.3899 80 10.9056 80 11.6146V11.7435C80 12.4525 79.4199 13.0325 78.711 13.0325ZM78.711 7.87625C78.002 7.87625 77.4219 7.29616 77.4219 6.58717C77.4219 5.87818 78.002 5.23364 78.711 5.23364C79.4199 5.23364 80 5.74927 80 6.45826V6.58717C80 7.29616 79.4199 7.87625 78.711 7.87625Z" fill="currentcolor"/>
<path d="M78.7109 80C78.0019 80 77.396 79.4199 77.396 78.7109C77.396 78.1695 77.7054 77.7055 78.1694 77.5121C78.337 77.4347 78.5175 77.3832 78.7109 77.3832C79.4198 77.3832 79.9999 77.9246 79.9999 78.6465V78.7109C79.9999 79.4199 79.4198 80 78.7109 80Z" fill="currentcolor"/>
<path d="M73.7996 80H73.6836C72.9746 80 72.3945 79.4199 72.3945 78.711C72.3945 78.002 72.9746 77.4219 73.6836 77.4219C74.3926 77.4219 75.0371 78.002 75.0371 78.711C75.0371 79.4199 74.5215 80 73.8125 80H73.7996ZM68.8238 80H68.7078C67.9988 80 67.4187 79.4199 67.4187 78.711C67.4187 78.002 67.9988 77.4219 68.7078 77.4219C69.4168 77.4219 70.0613 78.002 70.0613 78.711C70.0613 79.4199 69.5457 80 68.8367 80H68.8238ZM63.848 80H63.7319C63.023 80 62.4429 79.4199 62.4429 78.711C62.4429 78.002 63.023 77.4219 63.7319 77.4219C64.4409 77.4219 65.0855 78.002 65.0855 78.711C65.0855 79.4199 64.5698 80 63.8609 80H63.848ZM58.8721 80H58.7561C58.0471 80 57.467 79.4199 57.467 78.711C57.467 78.002 58.0471 77.4219 58.7561 77.4219C59.4651 77.4219 60.1096 78.002 60.1096 78.711C60.1096 79.4199 59.594 80 58.885 80H58.8721ZM53.8963 80H53.7803C53.0713 80 52.4912 79.4199 52.4912 78.711C52.4912 78.002 53.0713 77.4219 53.7803 77.4219C54.4893 77.4219 55.1338 78.002 55.1338 78.711C55.1338 79.4199 54.6182 80 53.9092 80H53.8963ZM48.9205 80H48.8045C48.0955 80 47.5154 79.4199 47.5154 78.711C47.5154 78.002 48.0955 77.4219 48.8045 77.4219C49.5134 77.4219 50.158 78.002 50.158 78.711C50.158 79.4199 49.6424 80 48.9334 80H48.9205Z" fill="currentcolor"/>
<path d="M43.9317 80H43.8672C43.1582 80 42.5781 79.4199 42.5781 78.711C42.5781 78.002 43.1582 77.4219 43.8672 77.4219C44.5762 77.4219 45.195 78.002 45.195 78.711C45.195 79.4199 44.6535 80 43.9317 80Z" fill="currentcolor"/>
<path d="M38.7496 41.2633H1.28906V78.7238H38.7496V41.2633Z" stroke="currentcolor" stroke-width="1.5" stroke-miterlimit="10"/>
<path d="M43.8801 36.2101L69.6358 10.4544" stroke="#00AF9A" stroke-width="1.5" stroke-miterlimit="10"/>
<path d="M69.6358 32.9616L69.6487 10.3513L47.0383 10.3384" stroke="#00AF9A" stroke-width="1.5" stroke-linejoin="round"/>
</g>
</g>
<defs>
<clipPath id="clip0_890_65871">
<rect width="80" height="80" fill="white"/>
</clipPath>
<clipPath id="clip1_890_65871">
<rect width="80" height="80" fill="white"/>
</clipPath>
</defs>
</svg>
