<svg viewBox="0 0 80 80" fill="none" xmlns="http://www.w3.org/2000/svg">
<g clip-path="url(#clip0_5190_44315)">
<path d="M55.9293 16.6066C57.0483 17.2827 58.1323 18.0403 59.158 18.8562L16.9054 61.0738C12.8258 55.9336 10.3665 49.4529 10.3665 42.3895C10.3665 31.4912 16.1944 21.9217 24.9014 16.6416" stroke="currentcolor" stroke-width="1.5" stroke-linecap="round" stroke-linejoin="round"/>
<path d="M27.1627 8.30762C13.537 13.6344 3.87427 26.9104 3.87427 42.4011C3.87427 62.5774 20.2858 78.9889 40.4621 78.9889C60.6384 78.9889 77.0732 62.5658 77.0732 42.4011C77.0732 26.9687 67.4571 13.7276 53.9013 8.3659" stroke="currentcolor" stroke-width="1.5" stroke-linecap="round" stroke-linejoin="round"/>
<path d="M52.2229 35.5474C52.2229 37.9252 54.1461 39.8484 56.5239 39.8484C56.6405 39.8484 56.757 39.8484 56.8736 39.8484C56.9319 39.8484 57.2466 39.8251 57.3398 39.8135C59.6827 39.5571 61.5709 39.3472 62.7482 39.219C66.9093 38.7644 69.0423 39.9184 70.2196 42.2146" stroke="#00AF9A" stroke-width="1.5" stroke-miterlimit="10" stroke-linecap="square"/>
<path d="M13.6418 54.9895C14.2596 53.4509 14.4927 52.6 14.8191 51.7375C16.5908 46.9819 18.8287 44.2078 26.1603 43.3336C26.5566 43.287 27.6406 43.1471 27.6872 43.1354C29.8086 42.8674 31.452 41.0607 31.452 38.8694C31.452 37.6572 30.9508 36.5615 30.1349 35.7806C30.1116 35.7573 29.9018 35.5591 29.8202 35.4775C26.9995 32.7151 25.2511 28.8686 25.2511 24.6142V16.1987C25.2511 13.4479 25.9854 10.8719 27.2559 8.64567C29.8785 4.08822 34.7973 1.01106 40.4387 1.01106C48.831 0.999406 55.6264 7.80645 55.6264 16.187V21.7935" stroke="#00AF9A" stroke-width="1.5" stroke-miterlimit="10" stroke-linecap="square"/>
<path d="M50.0431 27.5865C50.6259 26.281 50.9523 24.8357 50.9523 23.3088V16.6882C50.9523 10.8953 46.255 6.19794 40.462 6.19794C36.5689 6.19794 33.1654 8.31931 31.3587 11.4664C30.4729 13.005 29.9717 14.7883 29.9717 16.6882V23.3088C29.9717 29.1018 34.669 33.7991 40.462 33.7991C41.9539 33.7991 43.376 33.4844 44.6581 32.9249" stroke="#00AF9A" stroke-width="1.5" stroke-miterlimit="10" stroke-linecap="square"/>
<path d="M36.6506 51.1663H59.1115V65.4098" stroke="#00AF9A" stroke-width="1.5" stroke-miterlimit="10" stroke-linecap="square"/>
<path d="M22.9783 54.4067V51.1663H26.3235" stroke="#00AF9A" stroke-width="1.5" stroke-miterlimit="10" stroke-linecap="square"/>
<path d="M22.9783 66.3773V64.8503" stroke="#00AF9A" stroke-width="1.5" stroke-miterlimit="10" stroke-linecap="square"/>
<path d="M59.1465 18.8329L16.9055 61.0738M21.4746 65.7245L63.7855 23.402" stroke="currentcolor" stroke-width="1.5" stroke-linecap="round" stroke-linejoin="round"/>
<path d="M40.462 72.4966C33.2587 72.4966 26.6614 69.944 21.4629 65.7246L63.7854 23.402C68.0165 28.5889 70.5692 35.1978 70.5692 42.4011C70.5575 58.9875 57.0483 72.4966 40.462 72.4966Z" stroke="currentcolor" stroke-width="1.5" stroke-linecap="round" stroke-linejoin="round"/>
<path d="M16.9054 61.0739C12.8258 55.9336 10.3665 49.4529 10.3665 42.3895" stroke="currentcolor" stroke-width="1.5" stroke-linecap="round" stroke-linejoin="round"/>
</g>
<defs>
<clipPath id="clip0_5190_44315">
<rect width="74.9474" height="80" fill="white" transform="translate(3)"/>
</clipPath>
</defs>
</svg>
