<svg width="17" height="14" viewBox="0 0 17 14" fill="none" xmlns="http://www.w3.org/2000/svg">
<path d="M16.8604 2.53545C16.259 2.79633 15.6231 2.96878 14.9724 3.04745C15.6589 2.63731 16.1734 1.99208 16.4203 1.23145C15.7752 1.6155 15.069 1.88609 14.3323 2.03145C13.3197 0.933277 11.6929 0.658057 10.3754 1.362C9.05784 2.06595 8.38236 3.57122 8.73235 5.02345C6.09424 4.89002 3.63693 3.64246 1.97235 1.59145C1.68366 2.09559 1.53196 2.66651 1.53235 3.24745C1.53027 4.34322 2.07684 5.36729 2.98835 5.97545C2.46673 5.96126 1.95626 5.82129 1.50035 5.56745V5.60745C1.50841 7.16584 2.6119 8.50339 4.14035 8.80745C3.85495 8.8943 3.55865 8.9401 3.26035 8.94345C3.05386 8.94104 2.84789 8.92231 2.64435 8.88745C3.07713 10.2204 4.3072 11.1325 5.70835 11.1595C4.55411 12.0677 3.12906 12.5633 1.66035 12.5675C1.39294 12.5683 1.12574 12.5523 0.860352 12.5195C2.35989 13.4877 4.1074 14.0016 5.89235 13.9995C8.38056 14.0253 10.7747 13.0499 12.5365 11.2926C14.2983 9.53538 15.2798 7.14372 15.2604 4.65545C15.2604 4.51945 15.2604 4.37545 15.2604 4.23145C15.8881 3.7633 16.4295 3.18939 16.8604 2.53545Z" fill="currentColor"/>
</svg>
