<svg width="17" height="12" viewBox="0 0 17 12" fill="none" xmlns="http://www.w3.org/2000/svg">
<path fill-rule="evenodd" clip-rule="evenodd" d="M8.19831 0.757324C8.60676 0.757901 13.2284 0.770872 14.4236 1.06274C15.1205 1.25988 15.6586 1.81469 15.8345 2.51721C16.0652 3.79619 16.1772 5.09377 16.169 6.39337C16.1736 7.67354 16.0616 8.95148 15.8345 10.2114C15.6586 10.9139 15.1205 11.4687 14.4236 11.6658C13.3118 11.9632 9.23497 11.9962 8.34273 11.9999H7.99614C7.1039 11.9962 3.02707 11.9632 1.91521 11.6658C1.23309 11.4792 0.698076 10.9497 0.504377 10.2695C0.273674 8.99054 0.161689 7.69297 0.169849 6.39337C0.163475 5.10348 0.275453 3.81572 0.504377 2.5463C0.680214 1.84378 1.21837 1.28897 1.91521 1.09183C3.11046 0.772165 7.7321 0.757958 8.14055 0.757327L8.19831 0.757324ZM6.53315 4.01531V8.77143L10.7148 6.39337L6.53315 4.01531Z" fill="currentColor"/>
</svg>
