<svg width="18" height="18" version="1.1" viewBox="0 0 18 18" xmlns="http://www.w3.org/2000/svg">
 <path d="m8.999 0.55762a8.4421 8.4421 0 0 0-8.4414 8.4434 8.4421 8.4421 0 0 0 8.4414 8.4414 8.4421 8.4421 0 0 0 8.4434-8.4414 8.4421 8.4421 0 0 0-8.4434-8.4434zm0 2.0039a6.4389 6.4389 0 0 1 6.4395 6.4395 6.4389 6.4389 0 0 1-6.4395 6.4375 6.4389 6.4389 0 0 1-6.4375-6.4375 6.4389 6.4389 0 0 1 6.4375-6.4395z" style="fill:currentColor"/>
 <path d="m7.0797 10.841 0.03134-3.6349c0.0064-0.73914 0.51565-0.79578 0.94006-0.5327l2.6792 1.6608c0.69316 0.42968 0.71698 0.86797 0 1.3161l-2.6322 1.6451c-0.56758 0.35474-1.0236 0.15222-1.0184-0.45436z" style="fill:currentColor"/>
</svg>
