<svg width="100" height="42" viewBox="0 0 100 42" fill="none" xmlns="http://www.w3.org/2000/svg">
<path d="M26.2228 0H24.8941V41.39H26.2228V0Z" fill="#1D252C"/>
<path d="M14.039 17.9499H8.59888V23.39H14.039V17.9499Z" fill="#923A7F"/>
<path d="M5.49026 12.4094H17.7493V7.16987H0V17.9498H5.49026V12.4094Z" fill="#1D252C"/>
<path d="M5.49025 23.39H0V34.1699H5.49025V23.39Z" fill="#1D252C"/>
<path d="M33.3427 20.6825C33.3427 12.3844 38.9332 6.79389 45.8775 6.79389C52.8218 6.79389 58.4123 12.3844 58.4123 20.6825C58.4123 28.9805 52.8218 34.5711 45.8775 34.5711C38.9332 34.5711 33.3427 28.9805 33.3427 20.6825ZM56.6825 20.6825C56.6825 13.3621 51.8691 8.5237 45.8775 8.5237C39.8858 8.5237 35.0725 13.3371 35.0725 20.6825C35.0725 28.0279 39.8858 32.8413 45.8775 32.8413C51.8691 32.8413 56.6825 28.0279 56.6825 20.6825Z" fill="#923A7F"/>
<path d="M59.5656 7.16987H63.0503L77.34 32.4401H78.1171V7.16987H79.8469V34.195H76.3622L62.0725 8.92475H61.2954V34.195H59.5656V7.16987Z" fill="#923A7F"/>
<path d="M82.5293 7.16987H99.3259V8.89968H84.2841V19.7047H98.5738V21.4345H84.2841V32.4401H99.3259V34.1699H82.5293V7.16987Z" fill="#923A7F"/>
</svg>
