<svg width="250" height="34" viewBox="0 0 250 34" fill="none" xmlns="http://www.w3.org/2000/svg">
<path d="M183.833 13.8086C183.833 5.56319 189.397 0 196.301 0C203.205 0 208.768 5.56319 208.768 13.8086C208.768 22.0541 203.205 27.6172 196.301 27.6172C189.397 27.6172 183.833 22.0541 183.833 13.8086ZM207.03 13.8086C207.03 6.53178 202.237 1.7385 196.301 1.7385C190.365 1.7385 185.572 6.53178 185.572 13.8086C185.572 21.0855 190.365 25.8787 196.301 25.8787C202.237 25.9036 207.03 21.1103 207.03 13.8086Z" fill="#923A7F"/>
<path d="M209.911 0.397372H213.363L227.544 25.5062H228.314V0.397372H230.028V27.2199H226.576L212.394 2.13587H211.625V27.2447H209.911V0.397372Z" fill="#923A7F"/>
<path d="M232.71 0.397372H249.375V2.11103H234.424V12.84H248.605V14.5537H234.424V25.4814H249.375V27.195H232.71V0.397372Z" fill="#923A7F"/>
<path d="M13.9328 11.0767H8.51863V16.4909H13.9328V11.0767Z" fill="#923A7F"/>
<path d="M5.43901 5.58802H17.6085V0.397372H0V11.0767H5.43901V5.58802Z" fill="#1D252C"/>
<path d="M5.43901 16.4909H0V27.195H5.43901V16.4909Z" fill="#1D252C"/>
<path d="M144.544 0.397375H139.502V5.11615H144.544V0.397375Z" fill="#1D252C"/>
<path d="M43.7107 9.41271V7.4507H38.8926V27.1702H43.9591V17.4843C43.9591 15.9197 44.1578 14.3053 45.2257 13.1877C46.3681 11.9708 48.057 11.7224 50.0935 11.9708V7.07816C47.6844 6.70563 45.325 7.42586 43.7107 9.41271Z" fill="#1D252C"/>
<path d="M60.8473 23.0475C58.0409 23.0475 55.8057 20.4894 55.8057 17.385C55.8057 14.206 58.0657 11.5983 60.8473 11.5983C62.6852 11.5983 64.2498 12.7407 64.9452 14.0818H70.3346C69.1921 9.63623 65.591 6.95399 60.8473 6.95399C54.9116 6.95399 50.6647 11.6231 50.6647 17.3353C50.6647 23.0475 54.9116 27.6421 60.8473 27.6421C65.6406 27.6421 69.2418 25.0095 70.3842 20.5142H64.9949C64.3243 21.905 62.71 23.0475 60.8473 23.0475Z" fill="#1D252C"/>
<path d="M82.1812 6.95399C76.6428 6.95399 72.0731 11.6231 72.0731 17.3353C72.0731 23.0475 76.6428 27.6421 82.1812 27.6421C86.8503 27.6421 90.2279 25.1834 91.5194 21.4828H85.9562C85.0621 22.6501 83.6216 23.1965 82.1563 23.1965C79.7721 23.1965 77.8598 21.7064 77.214 19.2973H92.1154C92.8356 11.4741 88.0175 6.95399 82.1812 6.95399ZM77.2885 15.1498C78.0088 12.8649 79.8466 11.3996 82.1563 11.3996C84.5654 11.3996 86.4777 12.8649 87.0986 15.1498H77.2885Z" fill="#1D252C"/>
<path d="M144.544 7.47553H139.502V27.195H144.544V7.47553Z" fill="#1D252C"/>
<path d="M157.359 6.97882C155.248 6.97882 153.534 7.89774 152.267 9.38788V7.47554H147.449V27.195H152.516V15.6713C152.516 13.4609 154.08 11.7721 156.34 11.7721C159.668 11.7721 160.016 14.5289 160.016 15.6713V27.195H165.058V15.6713C165.058 10.4558 161.978 6.97882 157.359 6.97882Z" fill="#1D252C"/>
<path d="M172.657 18.8999V11.9211H176.209V7.4507H172.657V2.98029H167.616V18.8751C167.616 24.2644 170.671 27.7663 176.457 27.1454V22.5508C173.924 22.6998 172.657 21.6567 172.657 18.8999Z" fill="#1D252C"/>
<path d="M26.152 6.95399C20.4398 6.95399 15.8203 11.5734 15.8203 17.2856C15.8203 22.9978 20.4398 27.6172 26.152 27.6172C31.8642 27.6172 36.4836 22.9978 36.4836 17.2856C36.5084 11.5983 31.8642 6.95399 26.152 6.95399ZM26.152 22.9978C23.0972 22.9978 20.6136 20.4397 20.6136 17.2856C20.6136 14.1315 23.0972 11.5734 26.152 11.5734C29.2068 11.5734 31.6903 14.1315 31.6903 17.2856C31.6903 20.4646 29.2316 22.9978 26.152 22.9978Z" fill="#1D252C"/>
<path d="M127.084 6.95399C121.372 6.95399 116.752 11.5734 116.752 17.2856C116.752 22.9978 121.372 27.6172 127.084 27.6172C132.796 27.6172 137.416 22.9978 137.416 17.2856C137.416 11.5983 132.771 6.95399 127.084 6.95399ZM127.084 22.9978C124.029 22.9978 121.546 20.4397 121.546 17.2856C121.546 14.1315 124.029 11.5734 127.084 11.5734C130.139 11.5734 132.622 14.1315 132.622 17.2856C132.598 20.4646 130.139 22.9978 127.084 22.9978Z" fill="#1D252C"/>
<path d="M105.378 7.00365C102.993 7.00365 100.907 7.97224 99.3675 9.53689V7.47553H94.4997V34H99.591V25.2827C101.081 26.748 103.118 27.6172 105.378 27.6172C110.544 27.6172 114.766 23.1468 114.766 17.2856C114.741 11.4492 110.544 7.00365 105.378 7.00365ZM104.633 22.8985C101.826 22.8985 99.591 20.3652 99.591 17.2608C99.591 14.206 101.851 11.7224 104.633 11.7224C107.439 11.7224 109.674 14.1066 109.674 17.2608C109.699 20.4894 107.439 22.8985 104.633 22.8985Z" fill="#1D252C"/>
</svg>
