<svg width="181" height="34" viewBox="0 0 181 34" fill="none" xmlns="http://www.w3.org/2000/svg">
<path d="M107.5 6.4C112.8 6.4 117.1 10.9 117.1 16.9C117.1 22.9 112.8 27.4 107.5 27.4C105.2 27.4 103.1 26.5 101.6 25V34H96.4V7H101.4V9C103 7.4 105.1 6.4 107.5 6.4ZM62.1 6.4C66.9 6.4 70.6 9.1 71.8 13.7H66.3C65.6 12.3 64 11.2 62.1 11.2C59.2 11.2 56.9 13.9 56.9 17.1C56.9 20.3 59.2 22.9 62.1 22.9C64 22.9 65.7 21.7 66.3 20.3H71.773L71.7202 20.491C70.4462 24.9137 66.8957 27.5 62.1 27.5C56 27.5 51.7 22.8 51.7 17C51.7 11.2 56 6.4 62.1 6.4ZM83.9 6.4C89.7119 6.4 94.5535 10.8637 94.0276 18.6441L94 19H78.8C79.4 21.5 81.4 23 83.8 23C85.2167 23 86.6333 22.4648 87.5445 21.3944L87.7 21.2H93.4C92.1 25 88.7 27.5 83.9 27.5C78.2 27.5 73.6 22.8 73.6 17C73.6 11.2 78.2 6.4 83.9 6.4ZM26.7 6.4C32.5 6.4 37.2 11.1 37.2 16.9C37.2 22.7 32.5 27.4 26.7 27.4C20.9 27.4 16.2 22.7 16.2 16.9C16.2 11.1 20.9 6.4 26.7 6.4ZM129.6 6.4C135.5 6.4 140.2 11.1 140.1 16.9C140.1 22.7 135.4 27.4 129.6 27.4C123.8 27.4 119.1 22.7 119.1 16.9C119.1 11.1 123.8 6.4 129.6 6.4ZM176.2 2V6.9H180.1V11.5H176.2V18.6C176.2 21.4 177.5 22.5 180.1 22.3V27H180C174.1 27.6 171 24.1 171 18.6V2H176.2ZM51 6.5V11.491L50.8161 11.4753C48.8465 11.3202 47.2455 11.5545 46.1 12.7C45 13.8 44.8 15.5 44.8 17.1V27H39.6V7H44.5V8.9C46.1 6.9 48.6 6.1 51 6.5ZM147.5 7V27H142.3V7H147.5ZM160.5 6.4C165.2 6.4 168.4 10 168.4 15.3V27H163.2V15.2C163.2 14 162.8 11.2 159.5 11.2C157.2 11.2 155.6 12.9 155.6 15.2V27H150.4V7H155.3V8.9C156.6 7.4 158.3 6.4 160.5 6.4ZM5.6 17V27H0V17H5.6ZM26.7 11.1C23.6 11.1 21.1 13.7 21.1 16.9C21.1 20.1 23.6 22.7 26.7 22.7C29.8 22.7 32.3 20.1 32.3 16.9C32.3 13.7 29.8 11.1 26.7 11.1ZM129.6 11.1C126.5 11.1 124 13.7 124 16.9C124 20.1 126.5 22.7 129.6 22.7C132.8 22.7 135.2 20.1 135.2 16.9C135.2 13.7 132.7 11.1 129.6 11.1ZM106.8 11.2C103.9 11.2 101.6 13.7 101.6 16.9C101.6 20.1 103.9 22.6 106.8 22.6C109.7 22.6 112 20.1 112 16.9C111.9 13.6 109.6 11.2 106.8 11.2ZM83.9 10.9C81.58 10.9 79.7272 12.3017 78.974 14.4727L78.9 14.7H88.9C88.3 12.4 86.4 10.9 83.9 10.9ZM18 0V5.3H5.6V11H0V0H18ZM147.5 0.2V5H142.3V0.2H147.5Z" fill="#1D252C"/>
<path d="M14 11H8V17H14V11Z" fill="#00AF9A"/>
</svg>
